# xmcd
#
# Track frame offsets:
#	150
#	14367
#	28213
#	43909
#	59266
#	74884
#	90017
#	102686
#	116819
#	131367
#	145377
#	160551
#	175687
#	191783
#	206444
#	220533
#	234457
#	248140
#	261617
#	275706
#	290305
#	302686
#	316286
#
# Disc length: 4400 seconds
#
# Revision: 1
# Processed by: cddbd v1.5.2PL0 Copyright (c) Steve Scherf et al.
# Submitted via: EZCDAudioConverter 8.3.2.1
#
DISCID=5c112e17
DTITLE=JIMMIE RODGERS - RECORDINGS 1927 - 1933 [DISC 1]
DYEAR=2007
DGENRE=Traditional Country
TTITLE0=THE SOLDIER'S SWEETHEART
TTITLE1=SLEEP, BABY SLEEP
TTITLE2=BEN DEWBERRY'S FINAL RUN
TTITLE3=MOTHER WAS A LADY
TTITLE4=BLUE YODEL
TTITLE5=AWAY OUT ON THE MOUNTAIN
TTITLE6=DEAR OLD SUNNY SOUTH BY THE SEA
TTITLE7=TREASURES UNTOLD
TTITLE8=THE BRAKEMAN'S BLUES
TTITLE9=THE SAILOR'S PLEA
TTITLE10=IN THE JAILHOUSE NOW
TTITLE11=BLUE YODEL #2
TTITLE12=MEMPHIS YODEL
TTITLE13=BLUE YODEL #3
TTITLE14=MY OLD PAL
TTITLE15=MY LITTLE OLD HOME DOWN IN NEW ORLEANS
TTITLE16=YOU AND MY OLD GUITAR
TTITLE17=DADDY AND HOME
TTITLE18=MY LITTLE LADY
TTITLE19=LULLABY YODEL
TTITLE20=NEVER NO MO' BLUES
TTITLE21=MY CAROLINA SUNSHINE GIRL
TTITLE22=BLUE YODEL #4
EXTD=
EXTT0=
EXTT1=
EXTT2=
EXTT3=
EXTT4=
EXTT5=
EXTT6=
EXTT7=
EXTT8=
EXTT9=
EXTT10=
EXTT11=
EXTT12=
EXTT13=
EXTT14=
EXTT15=
EXTT16=
EXTT17=
EXTT18=
EXTT19=
EXTT20=
EXTT21=
EXTT22=
PLAYORDER=
